<?xml version="1.0" encoding="UTF-8"?>
<!-- Generator: Adobe Illustrator 15.0.2, SVG Export Plug-In . SVG Version: 6.00 Build 0)  -->
<!DOCTYPE svg PUBLIC "-//W3C//DTD SVG 1.1//EN" "http://www.w3.org/Graphics/SVG/1.1/DTD/svg11.dtd">
<svg xmlns="http://www.w3.org/2000/svg" xmlns:xlink="http://www.w3.org/1999/xlink" version="1.1" id="Layer_1" x="0px" y="0px" width="512px" height="512px" viewBox="0 0 512 512" enable-background="new 0 0 512 512" xml:space="preserve">
<g>
	<path d="M256,0C114.616,0,0,114.616,0,256s114.616,256,256,256s256-114.616,256-256S397.384,0,256,0z M392.533,273.066H273.066   v119.467c0,9.417-7.649,17.066-17.066,17.066s-17.066-7.649-17.066-17.066V273.066H119.467c-9.417,0-17.066-7.649-17.066-17.066   s7.649-17.066,17.066-17.066h119.467V119.467c0-9.417,7.649-17.066,17.066-17.066s17.066,7.649,17.066,17.066v119.467h119.467   c9.417,0,17.066,7.649,17.066,17.066S401.95,273.066,392.533,273.066z" fill="#15161E"/>
</g>
</svg>
